<mxfile host="app.diagrams.net" modified="2021-08-14T01:54:44.536Z" agent="5.0 (Windows NT 10.0; Win64; x64) AppleWebKit/537.36 (KHTML, like Gecko) Chrome/92.0.4515.131 Safari/537.36" etag="9zTGtRuZGf9wjbFRHneJ" version="14.9.6" type="github">
  <diagram id="eqL4VNtCnT3haCaCIDqj" name="Page-1">
    <mxGraphModel dx="1209" dy="626" grid="1" gridSize="10" guides="1" tooltips="1" connect="1" arrows="1" fold="1" page="1" pageScale="1" pageWidth="850" pageHeight="1100" math="0" shadow="0">
      <root>
        <mxCell id="0" />
        <mxCell id="1" parent="0" />
        <mxCell id="70IrtmSlO5SRaNqVBCyf-1" value="&lt;table align=&quot;center&quot; border=&quot;1&quot; class=&quot;table table-striped&quot; style=&quot;box-sizing: inherit; border-collapse: collapse; border-spacing: 0px; width: 843.525px; border-width: 0px; border-style: solid; border-color: rgba(231, 232, 234, 0.25) rgba(231, 232, 234, 0.25) rgba(231, 232, 234, 0.25) transparent; max-width: 100%; background-color: rgb(255, 255, 255); margin-bottom: 20px; color: rgb(34, 34, 34); font-family: &amp;quot;source sans pro&amp;quot;, arial, sans-serif; font-size: 18px; font-style: normal; font-weight: 400; letter-spacing: normal; text-transform: none; word-spacing: 0px;&quot;&gt;&lt;tbody style=&quot;box-sizing: inherit&quot;&gt;&lt;tr style=&quot;box-sizing: inherit ; vertical-align: middle&quot;&gt;&lt;th style=&quot;box-sizing: inherit ; vertical-align: top ; padding: 8px ; text-align: left ; background: rgb(242 , 242 , 242) ; line-height: 20px ; border-width: 1px 0px 0px 1px ; border-left-style: solid ; border-left-color: rgba(231 , 232 , 234 , 0.25) ; border-top-style: solid ; border-top-color: rgb(221 , 221 , 221) ; font-weight: bold&quot;&gt;&lt;span style=&quot;box-sizing: inherit ; text-align: center&quot;&gt;Number&lt;/span&gt;&lt;/th&gt;&lt;th style=&quot;box-sizing: inherit ; vertical-align: top ; padding: 8px ; text-align: left ; background: rgb(242 , 242 , 242) ; line-height: 20px ; border-width: 1px 0px 0px 1px ; border-left-style: solid ; border-left-color: rgba(231 , 232 , 234 , 0.25) ; border-top-style: solid ; border-top-color: rgb(221 , 221 , 221) ; font-weight: bold&quot;&gt;&lt;span style=&quot;box-sizing: inherit ; text-align: center&quot;&gt;Permission Type&lt;/span&gt;&lt;/th&gt;&lt;th style=&quot;box-sizing: inherit ; vertical-align: top ; padding: 8px ; text-align: left ; background: rgb(242 , 242 , 242) ; line-height: 20px ; border-width: 1px 0px 0px 1px ; border-left-style: solid ; border-left-color: rgba(231 , 232 , 234 , 0.25) ; border-top-style: solid ; border-top-color: rgb(221 , 221 , 221) ; font-weight: bold&quot;&gt;&lt;span style=&quot;box-sizing: inherit ; text-align: center&quot;&gt;Symbol&lt;/span&gt;&lt;/th&gt;&lt;/tr&gt;&lt;tr style=&quot;box-sizing: inherit ; vertical-align: middle&quot;&gt;&lt;td style=&quot;box-sizing: inherit ; vertical-align: top ; padding: 8px ; border-width: 1px 0px 0px ; border-top-style: solid ; border-top-color: rgb(221 , 221 , 221) ; line-height: 20px ; text-align: left ; background-color: transparent&quot;&gt;&lt;span style=&quot;box-sizing: inherit ; text-align: center&quot;&gt;0&lt;/span&gt;&lt;/td&gt;&lt;td style=&quot;box-sizing: inherit ; vertical-align: top ; padding: 8px ; border-width: 1px 0px 0px ; border-top-style: solid ; border-top-color: rgb(221 , 221 , 221) ; line-height: 20px ; text-align: left ; background-color: transparent&quot;&gt;&lt;span style=&quot;box-sizing: inherit ; text-align: center&quot;&gt;No Permission&lt;/span&gt;&lt;/td&gt;&lt;td style=&quot;box-sizing: inherit ; vertical-align: top ; padding: 8px ; border-width: 1px 0px 0px ; border-top-style: solid ; border-top-color: rgb(221 , 221 , 221) ; line-height: 20px ; text-align: left ; background-color: transparent&quot;&gt;&lt;span style=&quot;box-sizing: inherit ; text-align: center&quot;&gt;---&lt;/span&gt;&lt;/td&gt;&lt;/tr&gt;&lt;tr style=&quot;box-sizing: inherit ; vertical-align: middle&quot;&gt;&lt;td style=&quot;box-sizing: inherit ; vertical-align: top ; padding: 8px ; border-width: 1px 0px 0px ; border-top-style: solid ; border-top-color: rgb(221 , 221 , 221) ; line-height: 20px ; text-align: left ; background: rgb(249 , 249 , 249)&quot;&gt;&lt;span style=&quot;box-sizing: inherit ; text-align: center&quot;&gt;1&lt;/span&gt;&lt;/td&gt;&lt;td style=&quot;box-sizing: inherit ; vertical-align: top ; padding: 8px ; border-width: 1px 0px 0px ; border-top-style: solid ; border-top-color: rgb(221 , 221 , 221) ; line-height: 20px ; text-align: left ; background: rgb(249 , 249 , 249)&quot;&gt;&lt;span style=&quot;box-sizing: inherit ; text-align: center&quot;&gt;Execute&lt;/span&gt;&lt;/td&gt;&lt;td style=&quot;box-sizing: inherit ; vertical-align: top ; padding: 8px ; border-width: 1px 0px 0px ; border-top-style: solid ; border-top-color: rgb(221 , 221 , 221) ; line-height: 20px ; text-align: left ; background: rgb(249 , 249 , 249)&quot;&gt;&lt;span style=&quot;box-sizing: inherit ; text-align: center&quot;&gt;--x&lt;/span&gt;&lt;/td&gt;&lt;/tr&gt;&lt;tr style=&quot;box-sizing: inherit ; vertical-align: middle&quot;&gt;&lt;td style=&quot;box-sizing: inherit ; vertical-align: top ; padding: 8px ; border-width: 1px 0px 0px ; border-top-style: solid ; border-top-color: rgb(221 , 221 , 221) ; line-height: 20px ; text-align: left ; background-color: transparent&quot;&gt;&lt;span style=&quot;box-sizing: inherit ; text-align: center&quot;&gt;2&lt;/span&gt;&lt;/td&gt;&lt;td style=&quot;box-sizing: inherit ; vertical-align: top ; padding: 8px ; border-width: 1px 0px 0px ; border-top-style: solid ; border-top-color: rgb(221 , 221 , 221) ; line-height: 20px ; text-align: left ; background-color: transparent&quot;&gt;&lt;span style=&quot;box-sizing: inherit ; text-align: center&quot;&gt;Write&lt;/span&gt;&lt;/td&gt;&lt;td style=&quot;box-sizing: inherit ; vertical-align: top ; padding: 8px ; border-width: 1px 0px 0px ; border-top-style: solid ; border-top-color: rgb(221 , 221 , 221) ; line-height: 20px ; text-align: left ; background-color: transparent&quot;&gt;&lt;span style=&quot;box-sizing: inherit ; text-align: center&quot;&gt;-w-&lt;/span&gt;&lt;/td&gt;&lt;/tr&gt;&lt;tr style=&quot;box-sizing: inherit ; vertical-align: middle&quot;&gt;&lt;td style=&quot;box-sizing: inherit ; vertical-align: top ; padding: 8px ; border-width: 1px 0px 0px ; border-top-style: solid ; border-top-color: rgb(221 , 221 , 221) ; line-height: 20px ; text-align: left ; background: rgb(249 , 249 , 249)&quot;&gt;&lt;span style=&quot;box-sizing: inherit ; text-align: center&quot;&gt;3&lt;/span&gt;&lt;/td&gt;&lt;td style=&quot;box-sizing: inherit ; vertical-align: top ; padding: 8px ; border-width: 1px 0px 0px ; border-top-style: solid ; border-top-color: rgb(221 , 221 , 221) ; line-height: 20px ; text-align: left ; background: rgb(249 , 249 , 249)&quot;&gt;&lt;span style=&quot;box-sizing: inherit ; text-align: center&quot;&gt;Execute + Write&lt;/span&gt;&lt;/td&gt;&lt;td style=&quot;box-sizing: inherit ; vertical-align: top ; padding: 8px ; border-width: 1px 0px 0px ; border-top-style: solid ; border-top-color: rgb(221 , 221 , 221) ; line-height: 20px ; text-align: left ; background: rgb(249 , 249 , 249)&quot;&gt;&lt;span style=&quot;box-sizing: inherit ; text-align: center&quot;&gt;-wx&lt;/span&gt;&lt;/td&gt;&lt;/tr&gt;&lt;tr style=&quot;box-sizing: inherit ; vertical-align: middle&quot;&gt;&lt;td style=&quot;box-sizing: inherit ; vertical-align: top ; padding: 8px ; border-width: 1px 0px 0px ; border-top-style: solid ; border-top-color: rgb(221 , 221 , 221) ; line-height: 20px ; text-align: left ; background-color: transparent&quot;&gt;&lt;span style=&quot;box-sizing: inherit ; text-align: center&quot;&gt;4&lt;/span&gt;&lt;/td&gt;&lt;td style=&quot;box-sizing: inherit ; vertical-align: top ; padding: 8px ; border-width: 1px 0px 0px ; border-top-style: solid ; border-top-color: rgb(221 , 221 , 221) ; line-height: 20px ; text-align: left ; background-color: transparent&quot;&gt;&lt;span style=&quot;box-sizing: inherit ; text-align: center&quot;&gt;Read&lt;/span&gt;&lt;/td&gt;&lt;td style=&quot;box-sizing: inherit ; vertical-align: top ; padding: 8px ; border-width: 1px 0px 0px ; border-top-style: solid ; border-top-color: rgb(221 , 221 , 221) ; line-height: 20px ; text-align: left ; background-color: transparent&quot;&gt;&lt;span style=&quot;box-sizing: inherit ; text-align: center&quot;&gt;r--&lt;/span&gt;&lt;/td&gt;&lt;/tr&gt;&lt;tr style=&quot;box-sizing: inherit ; vertical-align: middle&quot;&gt;&lt;td style=&quot;box-sizing: inherit ; vertical-align: top ; padding: 8px ; border-width: 1px 0px 0px ; border-top-style: solid ; border-top-color: rgb(221 , 221 , 221) ; line-height: 20px ; text-align: left ; background: rgb(249 , 249 , 249)&quot;&gt;&lt;span style=&quot;box-sizing: inherit ; text-align: center&quot;&gt;5&lt;/span&gt;&lt;/td&gt;&lt;td style=&quot;box-sizing: inherit ; vertical-align: top ; padding: 8px ; border-width: 1px 0px 0px ; border-top-style: solid ; border-top-color: rgb(221 , 221 , 221) ; line-height: 20px ; text-align: left ; background: rgb(249 , 249 , 249)&quot;&gt;&lt;span style=&quot;box-sizing: inherit ; text-align: center&quot;&gt;Read + Execute&lt;/span&gt;&lt;/td&gt;&lt;td style=&quot;box-sizing: inherit ; vertical-align: top ; padding: 8px ; border-width: 1px 0px 0px ; border-top-style: solid ; border-top-color: rgb(221 , 221 , 221) ; line-height: 20px ; text-align: left ; background: rgb(249 , 249 , 249)&quot;&gt;&lt;span style=&quot;box-sizing: inherit ; text-align: center&quot;&gt;r-x&lt;/span&gt;&lt;/td&gt;&lt;/tr&gt;&lt;tr style=&quot;box-sizing: inherit ; vertical-align: middle&quot;&gt;&lt;td style=&quot;box-sizing: inherit ; vertical-align: top ; padding: 8px ; border-width: 1px 0px 0px ; border-top-style: solid ; border-top-color: rgb(221 , 221 , 221) ; line-height: 20px ; text-align: left ; background-color: transparent&quot;&gt;&lt;span style=&quot;box-sizing: inherit ; text-align: center&quot;&gt;6&lt;/span&gt;&lt;/td&gt;&lt;td style=&quot;box-sizing: inherit ; vertical-align: top ; padding: 8px ; border-width: 1px 0px 0px ; border-top-style: solid ; border-top-color: rgb(221 , 221 , 221) ; line-height: 20px ; text-align: left ; background-color: transparent&quot;&gt;&lt;span style=&quot;box-sizing: inherit ; text-align: center&quot;&gt;Read +Write&lt;/span&gt;&lt;/td&gt;&lt;td style=&quot;box-sizing: inherit ; vertical-align: top ; padding: 8px ; border-width: 1px 0px 0px ; border-top-style: solid ; border-top-color: rgb(221 , 221 , 221) ; line-height: 20px ; text-align: left ; background-color: transparent&quot;&gt;&lt;span style=&quot;box-sizing: inherit ; text-align: center&quot;&gt;rw-&lt;/span&gt;&lt;/td&gt;&lt;/tr&gt;&lt;tr style=&quot;box-sizing: inherit ; vertical-align: middle&quot;&gt;&lt;td style=&quot;box-sizing: inherit ; vertical-align: top ; padding: 8px ; border-width: 1px 0px 0px ; border-top-style: solid ; border-top-color: rgb(221 , 221 , 221) ; line-height: 20px ; text-align: left ; background: rgb(249 , 249 , 249)&quot;&gt;&lt;span style=&quot;box-sizing: inherit ; text-align: center&quot;&gt;7&lt;/span&gt;&lt;/td&gt;&lt;td style=&quot;box-sizing: inherit ; vertical-align: top ; padding: 8px ; border-width: 1px 0px 0px ; border-top-style: solid ; border-top-color: rgb(221 , 221 , 221) ; line-height: 20px ; text-align: left ; background: rgb(249 , 249 , 249)&quot;&gt;&lt;span style=&quot;box-sizing: inherit ; text-align: center&quot;&gt;Read + Write +Execute&lt;/span&gt;&lt;/td&gt;&lt;td style=&quot;box-sizing: inherit ; vertical-align: top ; padding: 8px ; border-width: 1px 0px 0px ; border-top-style: solid ; border-top-color: rgb(221 , 221 , 221) ; line-height: 20px ; text-align: left ; background: rgb(249 , 249 , 249)&quot;&gt;&lt;span style=&quot;box-sizing: inherit ; text-align: center&quot;&gt;rwx&lt;/span&gt;&lt;/td&gt;&lt;/tr&gt;&lt;/tbody&gt;&lt;/table&gt;" style="text;whiteSpace=wrap;html=1;" vertex="1" parent="1">
          <mxGeometry x="30" y="50" width="550" height="360" as="geometry" />
        </mxCell>
        <mxCell id="70IrtmSlO5SRaNqVBCyf-2" value="" style="shape=image;verticalLabelPosition=bottom;labelBackgroundColor=#ffffff;verticalAlign=top;aspect=fixed;imageAspect=0;image=https://cdn.guru99.com/images/chmod_new(1).png;" vertex="1" parent="1">
          <mxGeometry x="53" y="440" width="504" height="189" as="geometry" />
        </mxCell>
        <mxCell id="70IrtmSlO5SRaNqVBCyf-3" value="" style="shape=image;verticalLabelPosition=bottom;labelBackgroundColor=#ffffff;verticalAlign=top;aspect=fixed;imageAspect=0;image=https://cdn.guru99.com/images/FilePermissions(1).png;" vertex="1" parent="1">
          <mxGeometry x="80" y="650" width="430" height="224.59" as="geometry" />
        </mxCell>
        <mxCell id="70IrtmSlO5SRaNqVBCyf-4" value="&lt;p style=&quot;box-sizing: inherit; margin: 0px 0px 1.3rem; color: rgb(34, 34, 34); font-family: &amp;quot;source sans pro&amp;quot;, arial, sans-serif; font-size: 18px; font-style: normal; font-weight: 400; letter-spacing: normal; text-indent: 0px; text-transform: none; word-spacing: 0px; background-color: rgb(255, 255, 255);&quot;&gt;764&#39; absolute code says the following:&lt;/p&gt;&lt;ul style=&quot;box-sizing: inherit; margin-top: 1.5rem; margin-bottom: 1.5rem; margin-left: 1.5rem; padding: 0px; color: rgb(34, 34, 34); font-family: &amp;quot;source sans pro&amp;quot;, arial, sans-serif; font-size: 18px; font-style: normal; font-weight: 400; letter-spacing: normal; text-indent: 0px; text-transform: none; word-spacing: 0px; background-color: rgb(255, 255, 255);&quot;&gt;&lt;li style=&quot;box-sizing: inherit&quot;&gt;Owner can read, write and execute&lt;/li&gt;&lt;li style=&quot;box-sizing: inherit&quot;&gt;Usergroup can read and write&lt;/li&gt;&lt;li style=&quot;box-sizing: inherit&quot;&gt;World can only read&lt;/li&gt;&lt;/ul&gt;" style="text;whiteSpace=wrap;html=1;" vertex="1" parent="1">
          <mxGeometry x="80" y="920" width="330" height="120" as="geometry" />
        </mxCell>
        <mxCell id="70IrtmSlO5SRaNqVBCyf-5" value="&lt;strong style=&quot;box-sizing: inherit; font-weight: bold; color: rgb(34, 34, 34); font-family: &amp;quot;source sans pro&amp;quot;, arial, sans-serif; font-size: 18px; font-style: normal; letter-spacing: normal; text-indent: 0px; text-transform: none; word-spacing: 0px; background-color: rgb(255, 255, 255);&quot;&gt;This is shown as &#39;-rwxrw-r--&lt;/strong&gt;" style="text;whiteSpace=wrap;html=1;" vertex="1" parent="1">
          <mxGeometry x="80" y="1050" width="260" height="30" as="geometry" />
        </mxCell>
      </root>
    </mxGraphModel>
  </diagram>
</mxfile>
